<svg xmlns="http://www.w3.org/2000/svg" width="500" height="500" viewBox="0 0 500 500">
<g>
<path d="M 409.55 265.09 C403.93,267.57 390.09,268.58 383.73,266.98 C368.03,263.01 360.20,250.20 361.24,230.15 C362.10,213.53 367.15,204.51 378.79,198.78 C384.99,195.73 386.18,195.50 395.48,195.50 C404.43,195.50 406.11,195.80 411.21,198.30 C421.00,203.11 426.47,212.46 427.65,226.39 C429.23,245.03 422.52,259.35 409.55,265.09 ZM 275.00 266.05 C275.00,266.59 270.63,267.00 265.00,267.00 C259.00,267.00 255.00,266.60 255.00,266.00 C255.00,265.45 256.46,264.99 258.25,264.97 C261.36,264.95 261.86,264.33 269.92,250.77 C274.55,242.98 278.32,236.13 278.30,235.55 C278.28,234.97 273.67,226.51 268.05,216.75 C258.49,200.13 257.66,199.00 254.92,199.00 C253.31,199.00 252.00,198.55 252.00,198.00 C252.00,197.37 258.33,197.00 269.00,197.00 C279.67,197.00 286.00,197.37 286.00,198.00 C286.00,198.55 284.65,199.00 283.00,199.00 C281.35,199.00 280.00,199.22 280.00,199.48 C280.00,200.60 292.49,222.00 293.14,222.00 C293.53,222.00 297.02,216.94 300.90,210.75 L 307.95 199.50 L 302.97 199.20 C293.96,198.65 297.73,197.00 308.00,197.00 C314.00,197.00 318.00,197.40 318.00,198.00 C318.00,198.55 316.54,199.02 314.75,199.04 C311.67,199.08 311.07,199.77 303.18,212.54 L 294.87 226.01 L 306.18 245.50 C316.55,263.37 317.72,265.00 320.25,265.00 C321.76,265.00 323.00,265.45 323.00,266.00 C323.00,266.63 316.67,267.00 306.00,267.00 C295.33,267.00 289.00,266.63 289.00,266.00 C289.00,265.45 290.35,265.00 292.00,265.00 C293.65,265.00 295.00,264.76 295.00,264.47 C295.00,263.58 280.83,238.84 280.52,239.18 C280.37,239.36 276.81,245.12 272.63,252.00 L 265.02 264.50 L 270.01 264.80 C272.76,264.97 275.00,265.53 275.00,266.05 ZM 203.59 264.91 C199.73,266.90 197.02,267.45 190.13,267.65 C177.69,268.03 171.27,266.09 165.79,260.33 C160.58,254.85 160.00,251.13 160.00,223.44 L 160.00 198.13 L 156.75 197.72 C154.96,197.50 160.93,197.32 170.00,197.32 C179.07,197.32 185.04,197.50 183.25,197.72 L 180.00 198.13 L 180.00 226.10 C180.00,251.85 180.15,254.38 181.95,257.90 C184.25,262.41 188.51,264.54 195.00,264.42 C200.88,264.32 205.25,261.94 208.15,257.27 C210.45,253.59 210.51,252.86 210.81,225.82 L 211.11 198.14 L 207.81 197.73 C205.99,197.50 207.88,197.32 212.00,197.31 C216.12,197.30 218.29,197.48 216.82,197.71 L 214.14 198.12 L 213.82 225.34 C213.50,252.23 213.47,252.62 210.96,257.49 C209.00,261.29 207.31,262.99 203.59,264.91 ZM 102.06 264.91 C98.90,266.65 95.73,267.42 90.60,267.68 C78.32,268.29 71.00,263.90 71.00,255.90 C71.00,247.87 79.98,243.89 85.55,249.45 C89.16,253.07 88.71,260.00 84.86,260.00 C83.80,260.00 82.68,260.68 82.36,261.51 C81.42,263.95 83.99,266.14 87.39,265.80 C92.73,265.28 92.97,263.72 92.99,229.75 L 93.00 199.00 L 89.50 199.00 C87.57,199.00 86.00,198.55 86.00,198.00 C86.00,197.38 92.00,197.00 102.00,197.00 C112.00,197.00 118.00,197.38 118.00,198.00 C118.00,198.55 116.88,199.00 115.50,199.00 L 113.00 199.00 L 113.00 222.45 C113.00,235.40 112.52,248.15 111.92,250.91 C110.50,257.55 107.38,261.97 102.06,264.91 ZM 388.42 264.11 C394.68,267.93 401.47,265.72 404.57,258.85 C406.30,255.02 406.50,252.16 406.50,231.53 C406.50,205.65 405.86,202.11 400.65,198.93 C394.78,195.35 387.55,197.27 384.27,203.27 C382.71,206.11 382.50,209.46 382.50,231.00 C382.50,258.11 382.98,260.80 388.42,264.11 ZM 138.00 233.50 C138.00,279.33 137.97,280.00 136.00,280.00 C134.03,280.00 134.00,279.33 134.00,233.50 C134.00,187.67 134.03,187.00 136.00,187.00 C137.97,187.00 138.00,187.67 138.00,233.50 ZM 239.00 233.50 C239.00,279.33 238.97,280.00 237.00,280.00 C235.03,280.00 235.00,279.33 235.00,233.50 C235.00,187.67 235.03,187.00 237.00,187.00 C238.97,187.00 239.00,187.67 239.00,233.50 ZM 54.00 233.50 C54.00,279.33 53.97,280.00 52.00,280.00 C50.03,280.00 50.00,279.33 50.00,233.50 C50.00,187.67 50.03,187.00 52.00,187.00 C53.97,187.00 54.00,187.67 54.00,233.50 ZM 450.00 233.50 C450.00,279.33 449.97,280.00 448.00,280.00 C446.03,280.00 446.00,279.33 446.00,233.50 C446.00,187.67 446.03,187.00 448.00,187.00 C449.97,187.00 450.00,187.67 450.00,233.50 ZM 342.76 233.24 C342.52,276.36 342.38,279.50 340.75,279.81 C339.10,280.13 339.00,277.39 339.00,233.57 C339.00,187.59 339.03,187.00 341.01,187.00 C343.00,187.00 343.02,187.50 342.76,233.24 ZM 414.93 310.04 C409.63,312.88 405.00,309.36 405.00,302.50 C405.00,292.43 416.15,290.78 418.59,300.49 C419.36,303.58 417.39,308.72 414.93,310.04 ZM 321.55 308.55 C320.20,309.90 317.98,311.00 316.62,311.00 C313.38,311.00 310.00,306.66 310.00,302.50 C310.00,298.09 313.37,294.00 317.00,294.00 C323.34,294.00 326.37,303.72 321.55,308.55 ZM 263.17 309.75 C262.32,310.44 259.90,311.00 257.81,311.00 L 254.00 311.00 L 254.00 294.00 L 257.75 294.02 C263.35,294.04 265.75,296.52 263.82,300.27 C263.18,301.51 263.36,302.51 264.41,303.55 C266.07,305.22 265.55,307.83 263.17,309.75 ZM 399.79 229.25 C399.44,236.45 397.28,238.82 392.99,236.69 C390.79,235.59 390.47,234.72 390.20,229.14 C389.87,222.20 390.92,220.00 394.55,220.00 C398.66,220.00 400.12,222.58 399.79,229.25 ZM 226.94 303.99 C224.78,313.62 222.81,313.23 220.80,302.79 C219.93,298.23 219.36,294.34 219.54,294.15 C220.66,292.95 221.90,295.81 222.50,301.00 C222.88,304.30 223.52,307.00 223.91,307.00 C224.31,307.00 225.21,304.08 225.93,300.50 C227.61,292.05 229.39,292.03 231.07,300.45 C231.77,304.00 232.68,306.70 233.08,306.45 C233.48,306.21 234.12,303.30 234.50,300.00 C234.92,296.35 235.67,294.00 236.41,294.00 C237.33,294.00 237.25,296.02 236.08,302.50 C234.09,313.47 232.13,314.03 229.92,304.25 L 228.40 297.50 ZM 313.65 307.17 C317.10,310.98 321.40,308.39 321.40,302.50 C321.40,296.75 317.10,294.04 313.57,297.57 C311.52,299.63 311.56,304.86 313.65,307.17 ZM 408.57 307.43 C412.23,311.08 416.00,308.58 416.00,302.50 C416.00,297.88 414.65,296.00 411.34,296.00 C407.27,296.00 405.30,304.15 408.57,307.43 ZM 349.43 308.44 C349.07,309.85 348.19,311.00 347.46,311.00 C345.64,311.00 351.15,294.60 353.09,294.24 C354.06,294.07 355.32,296.65 357.13,302.49 C359.09,308.84 359.43,311.00 358.45,311.00 C357.73,311.00 357.00,309.99 356.82,308.75 C356.58,307.03 355.74,306.43 353.28,306.19 C350.55,305.92 349.97,306.26 349.43,308.44 ZM 250.00 310.00 C250.00,310.55 247.75,311.00 245.00,311.00 L 240.00 311.00 L 240.00 294.00 L 245.00 294.00 C247.75,294.00 250.00,294.45 250.00,295.00 C250.00,295.55 248.43,296.00 246.50,296.00 C243.43,296.00 243.00,296.31 243.00,298.50 C243.00,300.61 243.47,301.00 246.00,301.00 C247.65,301.00 249.00,301.45 249.00,302.00 C249.00,302.55 247.65,303.00 246.00,303.00 C243.33,303.00 243.00,303.33 243.00,306.00 C243.00,308.76 243.28,309.00 246.50,309.00 C248.43,309.00 250.00,309.45 250.00,310.00 ZM 392.07 234.13 C392.74,235.39 393.94,236.01 395.32,235.81 C397.25,235.54 397.53,234.80 397.80,229.31 C398.05,223.99 397.81,222.97 396.12,222.06 C394.60,221.25 393.77,221.37 392.57,222.57 C390.76,224.38 390.47,231.14 392.07,234.13 ZM 453.00 310.00 C453.00,310.55 450.75,311.00 448.00,311.00 L 443.00 311.00 L 443.00 294.00 L 448.00 294.00 C450.75,294.00 453.00,294.45 453.00,295.00 C453.00,295.55 451.20,296.00 449.00,296.00 C445.40,296.00 445.00,296.25 445.00,298.50 C445.00,300.69 445.43,301.00 448.50,301.00 C450.42,301.00 452.00,301.45 452.00,302.00 C452.00,302.55 450.42,303.00 448.50,303.00 C445.28,303.00 445.00,303.24 445.00,306.00 C445.00,308.83 445.22,309.00 449.00,309.00 C451.20,309.00 453.00,309.45 453.00,310.00 ZM 305.07 309.96 C301.61,311.81 295.12,310.23 296.57,307.89 C296.96,307.26 297.67,307.31 298.53,308.03 C300.46,309.62 304.42,308.83 304.81,306.77 C305.03,305.60 303.97,304.48 301.54,303.32 C297.19,301.25 295.75,297.39 298.54,295.34 C300.97,293.57 304.45,293.64 305.99,295.48 C307.04,296.75 306.68,296.93 303.47,296.73 C298.27,296.41 298.05,298.37 302.93,301.46 C307.49,304.34 308.45,308.15 305.07,309.96 ZM 337.56 309.48 C332.57,313.39 327.00,309.72 327.00,302.50 C327.00,295.90 331.01,292.53 336.42,294.61 C339.11,295.64 338.16,296.98 335.16,296.38 C331.46,295.64 329.00,298.08 329.00,302.50 C329.00,307.22 331.39,309.32 335.90,308.56 C339.26,307.99 339.37,308.05 337.56,309.48 ZM 400.70 302.99 C397.62,313.11 396.10,313.16 393.25,303.22 C390.70,294.35 390.65,294.00 391.92,294.00 C392.42,294.00 393.65,297.14 394.64,300.98 C395.62,304.82 396.71,307.64 397.05,307.23 C397.39,306.83 398.48,303.69 399.49,300.25 C400.49,296.81 401.70,294.00 402.16,294.00 C403.36,294.00 403.25,294.63 400.70,302.99 ZM 439.00 309.50 C435.56,313.65 428.00,308.84 428.00,302.50 C428.00,296.20 435.55,291.35 438.96,295.45 C439.98,296.68 439.64,296.82 436.68,296.34 C433.72,295.85 432.95,296.15 431.51,298.34 C430.37,300.09 430.03,301.88 430.48,303.89 C431.37,307.96 433.36,309.38 437.12,308.63 C439.82,308.09 440.07,308.21 439.00,309.50 ZM 398.25 245.29 C399.49,245.53 398.02,245.73 395.00,245.73 C391.98,245.73 390.51,245.53 391.75,245.29 C393.88,244.88 395.04,242.00 393.08,242.00 C390.79,242.00 386.00,236.70 386.00,234.16 C386.00,231.59 386.07,231.62 387.75,234.99 C391.03,241.53 398.55,241.66 401.94,235.24 C403.47,232.34 403.92,231.98 403.96,233.62 C404.01,236.22 400.64,240.66 397.97,241.51 C395.30,242.36 395.47,244.76 398.25,245.29 ZM 371.50 310.00 C371.88,310.62 370.18,311.00 367.06,311.00 L 362.00 311.00 L 362.00 302.50 C362.00,297.50 362.41,294.00 363.00,294.00 C363.58,294.00 364.00,297.17 364.00,301.50 L 364.00 309.00 L 367.44 309.00 C369.33,309.00 371.16,309.45 371.50,310.00 ZM 256.00 306.00 C256.00,308.93 256.21,309.11 259.25,308.81 C261.97,308.55 262.50,308.09 262.50,306.00 C262.50,303.91 261.97,303.45 259.25,303.19 C256.21,302.89 256.00,303.07 256.00,306.00 ZM 344.00 302.50 C344.00,307.50 343.59,311.00 343.00,311.00 C342.41,311.00 342.00,307.50 342.00,302.50 C342.00,297.50 342.41,294.00 343.00,294.00 C343.59,294.00 344.00,297.50 344.00,302.50 ZM 424.00 302.50 C424.00,307.50 423.59,311.00 423.00,311.00 C422.41,311.00 422.00,307.50 422.00,302.50 C422.00,297.50 422.41,294.00 423.00,294.00 C423.59,294.00 424.00,297.50 424.00,302.50 ZM 256.00 298.50 C256.00,300.61 256.47,301.00 259.00,301.00 C261.53,301.00 262.00,300.61 262.00,298.50 C262.00,296.39 261.53,296.00 259.00,296.00 C256.47,296.00 256.00,296.39 256.00,298.50 ZM 351.00 303.07 C351.00,303.58 351.90,304.00 353.00,304.00 C355.10,304.00 355.29,303.10 354.04,299.00 L 353.28 296.50 L 352.14 299.32 C351.51,300.86 351.00,302.55 351.00,303.07 Z" fill="rgb(12,12,12)"/>
<path d="M 0.00 250.00 L 0.00 0.00 L 250.00 0.00 L 500.00 0.00 L 500.00 250.00 L 500.00 500.00 L 250.00 500.00 L 0.00 500.00 L 0.00 250.00 ZM 226.94 303.99 L 228.40 297.50 L 229.92 304.25 C232.13,314.03 234.09,313.47 236.08,302.50 C237.25,296.02 237.33,294.00 236.41,294.00 C235.67,294.00 234.92,296.35 234.50,300.00 C234.12,303.30 233.48,306.21 233.08,306.45 C232.68,306.70 231.77,304.00 231.07,300.45 C229.39,292.03 227.61,292.05 225.93,300.50 C225.21,304.08 224.31,307.00 223.91,307.00 C223.52,307.00 222.88,304.30 222.50,301.00 C221.90,295.81 220.66,292.95 219.54,294.15 C219.36,294.34 219.93,298.23 220.80,302.79 C222.81,313.23 224.78,313.62 226.94,303.99 ZM 250.00 310.00 C250.00,309.45 248.43,309.00 246.50,309.00 C243.28,309.00 243.00,308.76 243.00,306.00 C243.00,303.33 243.33,303.00 246.00,303.00 C247.65,303.00 249.00,302.55 249.00,302.00 C249.00,301.45 247.65,301.00 246.00,301.00 C243.47,301.00 243.00,300.61 243.00,298.50 C243.00,296.31 243.43,296.00 246.50,296.00 C248.43,296.00 250.00,295.55 250.00,295.00 C250.00,294.45 247.75,294.00 245.00,294.00 L 240.00 294.00 L 240.00 302.50 L 240.00 311.00 L 245.00 311.00 C247.75,311.00 250.00,310.55 250.00,310.00 ZM 263.17 309.75 C265.55,307.83 266.07,305.22 264.41,303.55 C263.36,302.51 263.18,301.51 263.82,300.27 C265.75,296.52 263.35,294.04 257.75,294.02 L 254.00 294.00 L 254.00 302.50 L 254.00 311.00 L 257.81 311.00 C259.90,311.00 262.32,310.44 263.17,309.75 ZM 305.07 309.96 C308.45,308.15 307.49,304.34 302.93,301.46 C298.05,298.37 298.27,296.41 303.47,296.73 C306.68,296.93 307.04,296.75 305.99,295.48 C304.45,293.64 300.97,293.57 298.54,295.34 C295.75,297.39 297.19,301.25 301.54,303.32 C303.97,304.48 305.03,305.60 304.81,306.77 C304.42,308.83 300.46,309.62 298.53,308.03 C297.67,307.31 296.96,307.26 296.57,307.89 C295.12,310.23 301.61,311.81 305.07,309.96 ZM 321.55 308.55 C326.37,303.72 323.34,294.00 317.00,294.00 C313.37,294.00 310.00,298.09 310.00,302.50 C310.00,306.66 313.38,311.00 316.62,311.00 C317.98,311.00 320.20,309.90 321.55,308.55 ZM 337.56 309.48 C339.37,308.05 339.26,307.99 335.90,308.56 C331.39,309.32 329.00,307.22 329.00,302.50 C329.00,298.08 331.46,295.64 335.16,296.38 C338.16,296.98 339.11,295.64 336.42,294.61 C331.01,292.53 327.00,295.90 327.00,302.50 C327.00,309.72 332.57,313.39 337.56,309.48 ZM 344.00 302.50 C344.00,297.50 343.59,294.00 343.00,294.00 C342.41,294.00 342.00,297.50 342.00,302.50 C342.00,307.50 342.41,311.00 343.00,311.00 C343.59,311.00 344.00,307.50 344.00,302.50 ZM 349.43 308.44 C349.97,306.26 350.55,305.92 353.28,306.19 C355.74,306.43 356.58,307.03 356.82,308.75 C357.00,309.99 357.73,311.00 358.45,311.00 C359.43,311.00 359.09,308.84 357.13,302.49 C355.32,296.65 354.06,294.07 353.09,294.24 C351.15,294.60 345.64,311.00 347.46,311.00 C348.19,311.00 349.07,309.85 349.43,308.44 ZM 371.50 310.00 C371.16,309.45 369.33,309.00 367.44,309.00 L 364.00 309.00 L 364.00 301.50 C364.00,297.17 363.58,294.00 363.00,294.00 C362.41,294.00 362.00,297.50 362.00,302.50 L 362.00 311.00 L 367.06 311.00 C370.18,311.00 371.88,310.62 371.50,310.00 ZM 400.70 302.99 C403.25,294.63 403.36,294.00 402.16,294.00 C401.70,294.00 400.49,296.81 399.49,300.25 C398.48,303.69 397.39,306.83 397.05,307.23 C396.71,307.64 395.62,304.82 394.64,300.98 C393.65,297.14 392.42,294.00 391.92,294.00 C390.65,294.00 390.70,294.35 393.25,303.22 C396.10,313.16 397.62,313.11 400.70,302.99 ZM 414.93 310.04 C417.39,308.72 419.36,303.58 418.59,300.49 C416.15,290.78 405.00,292.43 405.00,302.50 C405.00,309.36 409.63,312.88 414.93,310.04 ZM 424.00 302.50 C424.00,297.50 423.59,294.00 423.00,294.00 C422.41,294.00 422.00,297.50 422.00,302.50 C422.00,307.50 422.41,311.00 423.00,311.00 C423.59,311.00 424.00,307.50 424.00,302.50 ZM 439.00 309.50 C440.07,308.21 439.82,308.09 437.12,308.63 C433.36,309.38 431.37,307.96 430.48,303.89 C430.03,301.88 430.37,300.09 431.51,298.34 C432.95,296.15 433.72,295.85 436.68,296.34 C439.64,296.82 439.98,296.68 438.96,295.45 C435.55,291.35 428.00,296.20 428.00,302.50 C428.00,308.84 435.56,313.65 439.00,309.50 ZM 453.00 310.00 C453.00,309.45 451.20,309.00 449.00,309.00 C445.22,309.00 445.00,308.83 445.00,306.00 C445.00,303.24 445.28,303.00 448.50,303.00 C450.42,303.00 452.00,302.55 452.00,302.00 C452.00,301.45 450.42,301.00 448.50,301.00 C445.43,301.00 445.00,300.69 445.00,298.50 C445.00,296.25 445.40,296.00 449.00,296.00 C451.20,296.00 453.00,295.55 453.00,295.00 C453.00,294.45 450.75,294.00 448.00,294.00 L 443.00 294.00 L 443.00 302.50 L 443.00 311.00 L 448.00 311.00 C450.75,311.00 453.00,310.55 453.00,310.00 ZM 54.00 233.50 C54.00,187.67 53.97,187.00 52.00,187.00 C50.03,187.00 50.00,187.67 50.00,233.50 C50.00,279.33 50.03,280.00 52.00,280.00 C53.97,280.00 54.00,279.33 54.00,233.50 ZM 138.00 233.50 C138.00,187.67 137.97,187.00 136.00,187.00 C134.03,187.00 134.00,187.67 134.00,233.50 C134.00,279.33 134.03,280.00 136.00,280.00 C137.97,280.00 138.00,279.33 138.00,233.50 ZM 239.00 233.50 C239.00,187.67 238.97,187.00 237.00,187.00 C235.03,187.00 235.00,187.67 235.00,233.50 C235.00,279.33 235.03,280.00 237.00,280.00 C238.97,280.00 239.00,279.33 239.00,233.50 ZM 342.76 233.24 C343.02,187.50 343.00,187.00 341.01,187.00 C339.03,187.00 339.00,187.59 339.00,233.57 C339.00,277.39 339.10,280.13 340.75,279.81 C342.38,279.50 342.52,276.36 342.76,233.24 ZM 450.00 233.50 C450.00,187.67 449.97,187.00 448.00,187.00 C446.03,187.00 446.00,187.67 446.00,233.50 C446.00,279.33 446.03,280.00 448.00,280.00 C449.97,280.00 450.00,279.33 450.00,233.50 ZM 102.06 264.91 C107.38,261.97 110.50,257.55 111.92,250.91 C112.52,248.15 113.00,235.40 113.00,222.45 L 113.00 199.00 L 115.50 199.00 C116.88,199.00 118.00,198.55 118.00,198.00 C118.00,197.38 112.00,197.00 102.00,197.00 C92.00,197.00 86.00,197.38 86.00,198.00 C86.00,198.55 87.57,199.00 89.50,199.00 L 93.00 199.00 L 92.99 229.75 C92.97,263.72 92.73,265.28 87.39,265.80 C83.99,266.14 81.42,263.95 82.36,261.51 C82.68,260.68 83.80,260.00 84.86,260.00 C88.71,260.00 89.16,253.07 85.55,249.45 C79.98,243.89 71.00,247.87 71.00,255.90 C71.00,263.90 78.32,268.29 90.60,267.68 C95.73,267.42 98.90,266.65 102.06,264.91 ZM 203.59 264.91 C207.31,262.99 209.00,261.29 210.96,257.49 C213.47,252.62 213.50,252.23 213.82,225.34 L 214.14 198.12 L 216.82 197.71 C218.29,197.48 216.12,197.30 212.00,197.31 C207.88,197.32 205.99,197.50 207.81,197.73 L 211.11 198.14 L 210.81 225.82 C210.51,252.86 210.45,253.59 208.15,257.27 C205.25,261.94 200.88,264.32 195.00,264.42 C188.51,264.54 184.25,262.41 181.95,257.90 C180.15,254.38 180.00,251.85 180.00,226.10 L 180.00 198.13 L 183.25 197.72 C185.04,197.50 179.07,197.32 170.00,197.32 C160.93,197.32 154.96,197.50 156.75,197.72 L 160.00 198.13 L 160.00 223.44 C160.00,251.13 160.58,254.85 165.79,260.33 C171.27,266.09 177.69,268.03 190.13,267.65 C197.02,267.45 199.73,266.90 203.59,264.91 ZM 409.55 265.09 C422.52,259.35 429.23,245.03 427.65,226.39 C426.47,212.46 421.00,203.11 411.21,198.30 C406.11,195.80 404.43,195.50 395.48,195.50 C386.18,195.50 384.99,195.73 378.79,198.78 C367.15,204.51 362.10,213.53 361.24,230.15 C360.20,250.20 368.03,263.01 383.73,266.98 C390.09,268.58 403.93,267.57 409.55,265.09 ZM 275.00 266.05 C275.00,265.53 272.76,264.97 270.01,264.80 L 265.02 264.50 L 272.63 252.00 C276.81,245.12 280.37,239.36 280.52,239.18 C280.83,238.84 295.00,263.58 295.00,264.47 C295.00,264.76 293.65,265.00 292.00,265.00 C290.35,265.00 289.00,265.45 289.00,266.00 C289.00,266.63 295.33,267.00 306.00,267.00 C316.67,267.00 323.00,266.63 323.00,266.00 C323.00,265.45 321.76,265.00 320.25,265.00 C317.72,265.00 316.55,263.37 306.18,245.50 L 294.87 226.01 L 303.18 212.54 C311.07,199.77 311.67,199.08 314.75,199.04 C316.54,199.02 318.00,198.55 318.00,198.00 C318.00,197.40 314.00,197.00 308.00,197.00 C297.73,197.00 293.96,198.65 302.97,199.20 L 307.95 199.50 L 300.90 210.75 C297.02,216.94 293.53,222.00 293.14,222.00 C292.49,222.00 280.00,200.60 280.00,199.48 C280.00,199.22 281.35,199.00 283.00,199.00 C284.65,199.00 286.00,198.55 286.00,198.00 C286.00,197.37 279.67,197.00 269.00,197.00 C258.33,197.00 252.00,197.37 252.00,198.00 C252.00,198.55 253.31,199.00 254.92,199.00 C257.66,199.00 258.49,200.13 268.05,216.75 C273.67,226.51 278.28,234.97 278.30,235.55 C278.32,236.13 274.55,242.98 269.92,250.77 C261.86,264.33 261.36,264.95 258.25,264.97 C256.46,264.99 255.00,265.45 255.00,266.00 C255.00,266.60 259.00,267.00 265.00,267.00 C270.63,267.00 275.00,266.59 275.00,266.05 ZM 256.00 306.00 C256.00,303.07 256.21,302.89 259.25,303.19 C261.97,303.45 262.50,303.91 262.50,306.00 C262.50,308.09 261.97,308.55 259.25,308.81 C256.21,309.11 256.00,308.93 256.00,306.00 ZM 256.00 298.50 C256.00,296.39 256.47,296.00 259.00,296.00 C261.53,296.00 262.00,296.39 262.00,298.50 C262.00,300.61 261.53,301.00 259.00,301.00 C256.47,301.00 256.00,300.61 256.00,298.50 ZM 313.65 307.17 C311.56,304.86 311.52,299.63 313.57,297.57 C317.10,294.04 321.40,296.75 321.40,302.50 C321.40,308.39 317.10,310.98 313.65,307.17 ZM 351.00 303.07 C351.00,302.55 351.51,300.86 352.14,299.32 L 353.28 296.50 L 354.04 299.00 C355.29,303.10 355.10,304.00 353.00,304.00 C351.90,304.00 351.00,303.58 351.00,303.07 ZM 408.57 307.43 C405.30,304.15 407.27,296.00 411.34,296.00 C414.65,296.00 416.00,297.88 416.00,302.50 C416.00,308.58 412.23,311.08 408.57,307.43 ZM 388.42 264.11 C382.98,260.80 382.50,258.11 382.50,231.00 C382.50,209.46 382.71,206.11 384.27,203.27 C387.55,197.27 394.78,195.35 400.65,198.93 C405.86,202.11 406.50,205.65 406.50,231.53 C406.50,252.16 406.30,255.02 404.57,258.85 C401.47,265.72 394.68,267.93 388.42,264.11 ZM 398.25 245.29 C395.47,244.76 395.30,242.36 397.97,241.51 C400.64,240.66 404.01,236.22 403.96,233.62 C403.92,231.98 403.47,232.34 401.94,235.24 C398.55,241.66 391.03,241.53 387.75,234.99 C386.07,231.62 386.00,231.59 386.00,234.16 C386.00,236.70 390.79,242.00 393.08,242.00 C395.04,242.00 393.88,244.88 391.75,245.29 C390.51,245.53 391.98,245.73 395.00,245.73 C398.02,245.73 399.49,245.53 398.25,245.29 ZM 399.79 229.25 C400.12,222.58 398.66,220.00 394.55,220.00 C390.92,220.00 389.87,222.20 390.20,229.14 C390.47,234.72 390.79,235.59 392.99,236.69 C397.28,238.82 399.44,236.45 399.79,229.25 ZM 392.07 234.13 C390.47,231.14 390.76,224.38 392.57,222.57 C393.77,221.37 394.60,221.25 396.12,222.06 C397.81,222.97 398.05,223.99 397.80,229.31 C397.53,234.80 397.25,235.54 395.32,235.81 C393.94,236.01 392.74,235.39 392.07,234.13 Z" fill="rgb(254,254,254)"/>
</g>
</svg>