<svg xmlns="http://www.w3.org/2000/svg" width="500" height="500" viewBox="0 0 500 500">
<g>
<path d="M 220.80 302.79 C219.93,298.23 219.36,294.34 219.54,294.15 C220.66,292.95 221.90,295.81 222.50,301.00 C222.88,304.30 223.52,307.00 223.91,307.00 C224.31,307.00 225.21,304.08 225.93,300.50 C227.61,292.05 229.39,292.03 231.07,300.45 C231.77,304.00 232.68,306.70 233.08,306.45 C233.48,306.21 234.12,303.30 234.50,300.00 C234.94,296.21 235.66,294.00 236.45,294.00 C237.43,294.00 237.35,295.83 236.07,302.24 C233.91,313.04 232.04,313.66 229.93,304.28 L 228.40 297.50 L 226.94 303.99 C224.78,313.62 222.81,313.23 220.80,302.79 ZM 240.50 302.50 L 240.50 294.00 L 245.25 294.00 C247.86,294.00 250.00,294.45 250.00,295.00 C250.00,295.55 248.43,296.00 246.50,296.00 C243.43,296.00 243.00,296.31 243.00,298.50 C243.00,300.61 243.47,301.00 246.00,301.00 C247.65,301.00 249.00,301.45 249.00,302.00 C249.00,302.55 247.65,303.00 246.00,303.00 C243.33,303.00 243.00,303.33 243.00,306.00 C243.00,308.76 243.28,309.00 246.50,309.00 C248.43,309.00 250.00,309.45 250.00,310.00 C250.00,310.55 247.86,311.00 245.25,311.00 L 240.50 311.00 L 240.50 302.50 ZM 254.00 302.50 L 254.00 294.00 L 257.75 294.02 C263.35,294.04 265.75,296.52 263.82,300.27 C263.18,301.51 263.36,302.51 264.41,303.55 C267.53,306.67 263.69,311.00 257.81,311.00 L 254.00 311.00 L 254.00 302.50 ZM 262.50 306.00 C262.50,303.91 261.97,303.45 259.25,303.19 C256.21,302.89 256.00,303.07 256.00,306.00 C256.00,308.93 256.21,309.11 259.25,308.81 C261.97,308.55 262.50,308.09 262.50,306.00 ZM 262.00 298.50 C262.00,296.39 261.53,296.00 259.00,296.00 C256.47,296.00 256.00,296.39 256.00,298.50 C256.00,300.61 256.47,301.00 259.00,301.00 C261.53,301.00 262.00,300.61 262.00,298.50 ZM 297.73 309.91 C296.75,309.34 296.23,308.43 296.57,307.89 C296.96,307.26 297.67,307.31 298.53,308.03 C300.46,309.62 304.42,308.83 304.81,306.77 C305.03,305.60 303.97,304.48 301.54,303.32 C297.19,301.25 295.75,297.39 298.54,295.34 C300.97,293.57 304.45,293.64 305.99,295.48 C307.04,296.75 306.68,296.93 303.47,296.73 C298.27,296.41 298.05,298.37 302.93,301.46 C305.89,303.32 307.00,304.70 307.00,306.48 C307.00,310.33 301.78,312.27 297.73,309.91 ZM 312.07 308.37 C307.85,303.00 310.94,294.00 317.00,294.00 C323.34,294.00 326.37,303.72 321.55,308.55 C318.32,311.77 314.70,311.70 312.07,308.37 ZM 320.08 307.41 C320.80,306.53 321.40,304.32 321.40,302.50 C321.40,300.68 320.80,298.47 320.08,297.59 C317.09,294.00 312.00,296.93 312.00,302.24 C312.00,307.76 317.09,311.01 320.08,307.41 ZM 329.00 309.00 C326.24,306.24 326.26,299.17 329.04,296.19 C331.09,293.99 333.48,293.48 336.42,294.61 C339.11,295.64 338.16,296.98 335.16,296.38 C331.46,295.64 329.00,298.08 329.00,302.50 C329.00,307.22 331.39,309.32 335.90,308.56 C339.26,307.99 339.37,308.05 337.56,309.48 C334.88,311.58 331.38,311.38 329.00,309.00 ZM 342.00 302.50 C342.00,297.50 342.41,294.00 343.00,294.00 C343.59,294.00 344.00,297.50 344.00,302.50 C344.00,307.50 343.59,311.00 343.00,311.00 C342.41,311.00 342.00,307.50 342.00,302.50 ZM 348.91 302.75 C350.46,298.14 352.30,294.39 353.09,294.24 C354.06,294.07 355.32,296.65 357.13,302.49 C359.09,308.84 359.43,311.00 358.45,311.00 C357.73,311.00 357.00,309.99 356.82,308.75 C356.58,307.03 355.74,306.43 353.28,306.19 C350.55,305.92 349.97,306.26 349.43,308.44 C349.07,309.85 348.19,311.00 347.46,311.00 C346.48,311.00 346.86,308.86 348.91,302.75 ZM 354.90 302.75 C354.85,302.06 354.46,300.38 354.04,299.00 L 353.28 296.50 L 352.14 299.32 C350.56,303.22 350.70,304.00 353.00,304.00 C354.10,304.00 354.96,303.44 354.90,302.75 ZM 362.00 302.50 C362.00,297.50 362.41,294.00 363.00,294.00 C363.58,294.00 364.00,297.17 364.00,301.50 L 364.00 309.00 L 367.44 309.00 C369.33,309.00 371.16,309.45 371.50,310.00 C371.88,310.62 370.18,311.00 367.06,311.00 L 362.00 311.00 L 362.00 302.50 ZM 393.25 303.22 C390.70,294.35 390.65,294.00 391.92,294.00 C392.42,294.00 393.65,297.14 394.64,300.98 C395.62,304.82 396.71,307.64 397.05,307.23 C397.39,306.83 398.48,303.69 399.49,300.25 C400.49,296.81 401.70,294.00 402.16,294.00 C403.34,294.00 403.25,294.58 400.65,303.00 C397.55,313.05 396.08,313.10 393.25,303.22 ZM 407.00 309.00 C405.59,307.59 405.00,305.67 405.00,302.50 C405.00,299.33 405.59,297.41 407.00,296.00 C412.72,290.28 421.27,298.11 417.98,306.06 C415.85,311.19 410.60,312.60 407.00,309.00 ZM 414.96 307.07 C416.37,304.44 416.27,298.67 414.80,297.20 C412.96,295.36 409.19,295.77 408.04,297.93 C405.54,302.59 407.55,309.00 411.50,309.00 C412.88,309.00 414.38,308.16 414.96,307.07 ZM 422.00 302.50 C422.00,297.50 422.41,294.00 423.00,294.00 C423.59,294.00 424.00,297.50 424.00,302.50 C424.00,307.50 423.59,311.00 423.00,311.00 C422.41,311.00 422.00,307.50 422.00,302.50 ZM 430.45 308.55 C428.76,306.85 428.00,304.98 428.00,302.50 C428.00,296.20 435.55,291.35 438.96,295.45 C439.98,296.68 439.64,296.82 436.68,296.34 C433.72,295.85 432.95,296.15 431.51,298.34 C430.37,300.09 430.03,301.88 430.48,303.89 C431.37,307.96 433.36,309.38 437.12,308.63 C439.82,308.09 440.07,308.21 439.00,309.50 C437.13,311.75 433.22,311.31 430.45,308.55 ZM 443.00 302.50 L 443.00 294.00 L 448.00 294.00 C450.75,294.00 453.00,294.45 453.00,295.00 C453.00,295.55 451.20,296.00 449.00,296.00 C445.40,296.00 445.00,296.25 445.00,298.50 C445.00,300.69 445.43,301.00 448.50,301.00 C450.42,301.00 452.00,301.45 452.00,302.00 C452.00,302.55 450.42,303.00 448.50,303.00 C445.28,303.00 445.00,303.24 445.00,306.00 C445.00,308.83 445.22,309.00 449.00,309.00 C451.20,309.00 453.00,309.45 453.00,310.00 C453.00,310.55 450.75,311.00 448.00,311.00 L 443.00 311.00 L 443.00 302.50 ZM 278.36 298.50 C277.48,296.21 278.71,294.00 280.86,294.00 C283.01,294.00 284.24,296.21 283.36,298.50 C283.05,299.33 281.92,300.00 280.86,300.00 C279.80,300.00 278.68,299.33 278.36,298.50 ZM 282.00 296.92 C282.00,294.48 279.66,294.82 279.18,297.33 C278.99,298.32 279.50,299.00 280.43,299.00 C281.35,299.00 282.00,298.14 282.00,296.92 ZM 379.00 298.50 C378.01,297.30 378.01,296.70 379.00,295.50 C381.48,292.51 385.71,294.80 383.92,298.15 C382.72,300.39 380.69,300.53 379.00,298.50 ZM 383.00 297.00 C383.00,295.89 382.33,295.00 381.50,295.00 C380.67,295.00 380.00,295.89 380.00,297.00 C380.00,298.11 380.67,299.00 381.50,299.00 C382.33,299.00 383.00,298.11 383.00,297.00 ZM 50.00 233.50 C50.00,187.67 50.03,187.00 52.00,187.00 C53.97,187.00 54.00,187.67 54.00,233.50 C54.00,279.33 53.97,280.00 52.00,280.00 C50.03,280.00 50.00,279.33 50.00,233.50 ZM 134.00 233.50 C134.00,187.67 134.03,187.00 136.00,187.00 C137.97,187.00 138.00,187.67 138.00,233.50 C138.00,279.33 137.97,280.00 136.00,280.00 C134.03,280.00 134.00,279.33 134.00,233.50 ZM 235.00 233.50 C235.00,187.67 235.03,187.00 237.00,187.00 C238.97,187.00 239.00,187.67 239.00,233.50 C239.00,279.33 238.97,280.00 237.00,280.00 C235.03,280.00 235.00,279.33 235.00,233.50 ZM 339.00 233.57 C339.00,187.59 339.03,187.00 341.01,187.00 C343.00,187.00 343.02,187.50 342.76,233.24 C342.52,276.36 342.38,279.50 340.75,279.81 C339.10,280.13 339.00,277.39 339.00,233.57 ZM 446.00 233.50 C446.00,187.67 446.03,187.00 448.00,187.00 C449.97,187.00 450.00,187.67 450.00,233.50 C450.00,279.33 449.97,280.00 448.00,280.00 C446.03,280.00 446.00,279.33 446.00,233.50 ZM 79.50 266.56 C71.20,263.49 68.12,254.79 73.45,249.45 C79.91,243.00 90.66,249.91 87.39,258.42 C87.06,259.29 85.92,260.00 84.86,260.00 C83.80,260.00 82.68,260.68 82.36,261.51 C81.42,263.95 83.99,266.14 87.39,265.80 C92.73,265.28 92.97,263.72 92.99,229.75 L 93.00 199.00 L 89.50 199.00 C87.57,199.00 86.00,198.55 86.00,198.00 C86.00,197.38 92.00,197.00 102.00,197.00 C112.00,197.00 118.00,197.38 118.00,198.00 C118.00,198.55 116.88,199.00 115.50,199.00 L 113.00 199.00 L 113.00 222.45 C113.00,247.29 112.22,253.90 108.64,259.21 C103.72,266.51 89.25,270.16 79.50,266.56 ZM 177.72 266.96 C172.53,265.67 168.99,263.70 165.81,260.34 C160.90,255.15 160.59,253.21 160.03,225.00 L 159.50 198.50 L 157.26 198.47 C156.03,198.46 155.01,198.08 155.01,197.63 C155.00,197.18 161.97,196.74 170.50,196.66 C179.03,196.57 186.00,196.84 186.00,197.25 C186.00,197.66 184.65,198.00 183.00,198.00 L 180.00 198.00 L 180.00 226.04 C180.00,251.85 180.15,254.38 181.95,257.90 C184.24,262.38 188.26,264.38 195.00,264.38 C201.02,264.38 205.72,261.62 208.40,256.50 C210.36,252.77 210.52,250.66 210.79,225.47 L 211.09 198.44 L 208.37 198.22 C206.88,198.10 205.49,197.82 205.28,197.62 C204.51,196.85 210.65,196.52 215.00,197.10 C217.62,197.45 218.38,197.76 216.82,197.85 L 214.14 198.00 L 213.82 225.28 C213.50,252.23 213.47,252.62 210.96,257.49 C207.32,264.56 201.69,267.31 190.13,267.65 C185.38,267.80 179.80,267.49 177.72,266.96 ZM 383.73 266.98 C373.97,264.51 366.49,257.79 363.28,248.61 C360.84,241.62 360.89,222.47 363.36,216.00 C368.91,201.48 381.24,194.11 398.07,195.27 C407.47,195.91 413.48,198.43 418.86,203.98 C425.12,210.43 427.33,217.28 427.42,230.50 C427.52,244.34 425.54,251.07 419.37,257.93 C413.48,264.48 406.96,267.18 396.00,267.60 C391.33,267.78 385.81,267.50 383.73,266.98 ZM 398.89 264.89 C401.03,264.14 402.80,262.42 404.29,259.64 C406.39,255.70 406.50,254.34 406.50,232.00 C406.50,205.62 405.88,202.12 400.65,198.93 C394.78,195.35 387.55,197.27 384.27,203.27 C382.71,206.11 382.50,209.46 382.50,231.00 C382.50,258.11 382.98,260.80 388.42,264.11 C391.96,266.27 394.40,266.45 398.89,264.89 ZM 254.50 266.00 C254.84,265.45 256.55,264.99 258.31,264.97 C261.34,264.95 261.91,264.25 269.92,250.77 C274.55,242.98 278.32,236.13 278.30,235.55 C278.28,234.97 273.67,226.51 268.05,216.75 C258.49,200.13 257.66,199.00 254.92,199.00 C253.31,199.00 252.00,198.55 252.00,198.00 C252.00,197.37 258.33,197.00 269.00,197.00 C279.67,197.00 286.00,197.37 286.00,198.00 C286.00,198.55 284.65,199.00 283.00,199.00 C281.35,199.00 280.00,199.26 280.00,199.58 C280.00,199.89 281.85,203.38 284.12,207.33 C286.39,211.27 289.35,216.45 290.71,218.83 L 293.18 223.16 L 300.55 211.33 L 307.92 199.50 L 302.96 199.20 C293.95,198.65 297.74,197.00 308.00,197.00 C314.00,197.00 318.00,197.40 318.00,198.00 C318.00,198.55 316.54,199.02 314.75,199.04 C311.67,199.08 311.07,199.77 303.18,212.54 L 294.87 226.01 L 306.18 245.50 C316.55,263.37 317.72,265.00 320.25,265.00 C321.76,265.00 323.00,265.45 323.00,266.00 C323.00,266.63 316.67,267.00 306.00,267.00 C295.33,267.00 289.00,266.63 289.00,266.00 C289.00,265.45 290.35,265.00 292.00,265.00 C293.65,265.00 295.00,264.76 295.00,264.47 C295.00,263.58 280.83,238.84 280.52,239.18 C280.37,239.36 276.81,245.12 272.63,252.00 L 265.02 264.50 L 270.01 264.80 C279.30,265.37 275.16,267.00 264.44,267.00 C257.66,267.00 254.10,266.64 254.50,266.00 ZM 391.75 245.29 C393.88,244.88 395.04,242.00 393.08,242.00 C390.79,242.00 386.00,236.70 386.00,234.16 C386.00,231.59 386.07,231.62 387.75,234.99 C391.06,241.59 398.97,241.58 402.20,234.98 C403.47,232.39 403.92,232.02 403.95,233.53 C404.02,236.28 401.32,239.93 398.40,241.04 C395.37,242.19 395.28,244.72 398.25,245.29 C399.49,245.53 398.02,245.73 395.00,245.73 C391.98,245.73 390.51,245.53 391.75,245.29 ZM 392.99 236.69 C390.79,235.59 390.47,234.72 390.20,229.14 C389.87,222.20 390.92,220.00 394.55,220.00 C398.66,220.00 400.12,222.58 399.79,229.25 C399.44,236.45 397.28,238.82 392.99,236.69 ZM 397.80 229.67 C398.08,224.23 397.02,221.00 394.95,221.00 C392.91,221.00 391.00,224.46 391.00,228.14 C391.00,233.44 392.55,236.20 395.32,235.81 C397.23,235.54 397.54,234.79 397.80,229.67 Z" fill="rgba(0,0,0,1)"/>
</g>
</svg>